<?xml version="1.0" encoding="UTF-8"?>
<svg xmlns="http://www.w3.org/2000/svg" xmlns:xlink="http://www.w3.org/1999/xlink" width="32px" height="32px" viewBox="0 0 32 32" version="1.1">
<g id="surface1">
<path style=" stroke:none;fill-rule:nonzero;fill:rgb(0%,0%,0%);fill-opacity:1;" d="M 32 16 C 32 24.820312 24.820312 32 16 32 C 7.179688 32 0 24.820312 0 16 C 0 7.179688 7.179688 0 16 0 C 18.242188 0 20.375 0.46875 22.3125 1.304688 C 21.570312 1.882812 20.96875 2.625 20.570312 3.492188 C 19.140625 2.96875 17.609375 2.664062 16 2.664062 C 8.648438 2.664062 2.664062 8.648438 2.664062 16 C 2.664062 23.351562 8.648438 29.335938 16 29.335938 C 23.351562 29.335938 29.335938 23.351562 29.335938 16 C 29.335938 14.390625 29.03125 12.859375 28.507812 11.429688 C 29.375 11.03125 30.113281 10.429688 30.695312 9.6875 C 31.53125 11.625 32 13.757812 32 16 Z M 13.335938 10.664062 C 13.335938 9.195312 12.140625 8 10.664062 8 C 9.195312 8 8 9.195312 8 10.664062 C 8 12.140625 9.195312 13.335938 10.664062 13.335938 C 12.140625 13.335938 13.335938 12.140625 13.335938 10.664062 Z M 26 9.335938 C 27.84375 9.335938 29.335938 7.84375 29.335938 6 C 29.335938 4.15625 27.84375 2.664062 26 2.664062 C 24.15625 2.664062 22.664062 4.15625 22.664062 6 C 22.664062 7.84375 24.15625 9.335938 26 9.335938 Z M 18 16 C 18 14.898438 17.101562 14 16 14 C 14.898438 14 14 14.898438 14 16 C 14 17.101562 14.898438 18 16 18 C 17.101562 18 18 17.101562 18 16 Z M 14.34375 6.820312 C 15.054688 7.5 15.5625 8.375 15.816406 9.351562 C 15.878906 9.351562 15.9375 9.335938 16 9.335938 C 19.675781 9.335938 22.664062 12.324219 22.664062 16 C 22.664062 19.675781 19.675781 22.664062 16 22.664062 C 12.324219 22.664062 9.335938 19.675781 9.335938 16 C 9.335938 15.9375 9.351562 15.878906 9.351562 15.816406 C 8.371094 15.5625 7.5 15.054688 6.820312 14.34375 C 6.726562 14.882812 6.664062 15.4375 6.664062 16 C 6.664062 21.144531 10.855469 25.335938 16 25.335938 C 21.144531 25.335938 25.335938 21.144531 25.335938 16 C 25.335938 10.855469 21.144531 6.664062 16 6.664062 C 15.4375 6.664062 14.882812 6.726562 14.34375 6.820312 Z M 14.34375 6.820312 "/>
</g>
</svg>
